<svg id="visual" viewBox="0 0 900 600" width="900" height="600" xmlns="http://www.w3.org/2000/svg" xmlns:xlink="http://www.w3.org/1999/xlink" version="1.1"><rect x="0" y="0" width="900" height="600" fill="#161414"></rect><path d="M0 447L129 430L257 431L386 372L514 438L643 402L771 364L900 430L900 601L771 601L643 601L514 601L386 601L257 601L129 601L0 601Z" fill="#871400"></path><path d="M0 441L129 465L257 435L386 477L514 466L643 458L771 451L900 432L900 601L771 601L643 601L514 601L386 601L257 601L129 601L0 601Z" fill="#a32d04"></path><path d="M0 500L129 437L257 495L386 500L514 459L643 485L771 476L900 438L900 601L771 601L643 601L514 601L386 601L257 601L129 601L0 601Z" fill="#be4407"></path><path d="M0 484L129 516L257 493L386 524L514 495L643 481L771 497L900 485L900 601L771 601L643 601L514 601L386 601L257 601L129 601L0 601Z" fill="#da5b09"></path><path d="M0 539L129 546L257 557L386 527L514 551L643 558L771 568L900 536L900 601L771 601L643 601L514 601L386 601L257 601L129 601L0 601Z" fill="#f5730a"></path></svg>