<svg id="visual" viewBox="0 0 900 600" width="900" height="600" xmlns="http://www.w3.org/2000/svg" xmlns:xlink="http://www.w3.org/1999/xlink" version="1.1"><rect x="0" y="0" width="900" height="600" fill="#161414"></rect><path d="M0 374L129 403L257 374L386 407L514 389L643 366L771 374L900 411L900 601L771 601L643 601L514 601L386 601L257 601L129 601L0 601Z" fill="#871400"></path><path d="M0 433L129 407L257 412L386 412L514 448L643 450L771 460L900 444L900 601L771 601L643 601L514 601L386 601L257 601L129 601L0 601Z" fill="#992503"></path><path d="M0 479L129 419L257 413L386 467L514 423L643 454L771 471L900 472L900 601L771 601L643 601L514 601L386 601L257 601L129 601L0 601Z" fill="#ac3505"></path><path d="M0 474L129 475L257 455L386 479L514 473L643 472L771 452L900 481L900 601L771 601L643 601L514 601L386 601L257 601L129 601L0 601Z" fill="#be4407"></path><path d="M0 495L129 498L257 492L386 490L514 490L643 523L771 497L900 515L900 601L771 601L643 601L514 601L386 601L257 601L129 601L0 601Z" fill="#d15308"></path><path d="M0 533L129 523L257 535L386 535L514 549L643 531L771 527L900 542L900 601L771 601L643 601L514 601L386 601L257 601L129 601L0 601Z" fill="#e3630a"></path><path d="M0 556L129 560L257 562L386 548L514 577L643 546L771 547L900 561L900 601L771 601L643 601L514 601L386 601L257 601L129 601L0 601Z" fill="#f5730a"></path></svg>